<svg xmlns="http://www.w3.org/2000/svg" viewBox="0 0 46.28 157.91"><defs><style>.cls-1{fill:#e7b1bb;}</style></defs><title>arrow</title><g id="Layer_2" data-name="Layer 2"><g id="Layer_1-2" data-name="Layer 1"><path class="cls-1" d="M20.89,2.41v150c0,3.22,5,3.23,5,0V2.41c0-3.21-5-3.22-5,0Z"/><path class="cls-1" d="M23.39,154.41c3.22,0,3.22-5,0-5s-3.22,5,0,5Z"/><path class="cls-1" d="M23.39,154.41c3.22,0,3.22-5,0-5s-3.22,5,0,5Z"/><path class="cls-1" d="M.62,132.77l20.51,24.41a2.5,2.5,0,0,0,3.53,0l21-25c2.06-2.45-1.46-6-3.54-3.53l-21,25h3.53L4.16,129.24c-2.07-2.47-5.59,1.08-3.54,3.53Z"/></g></g></svg>